<svg width="27" height="27" viewBox="0 0 27 27" fill="none" xmlns="http://www.w3.org/2000/svg">
<path d="M9.47357 23.5901V19.91C9.47354 18.974 10.2768 18.2134 11.272 18.2071H14.9176C15.9176 18.2071 16.7282 18.9695 16.7282 19.91V23.6015C16.728 24.3962 17.4025 25.0458 18.2472 25.0644H20.6776C23.1004 25.0644 25.0645 23.2172 25.0645 20.9386V10.4698C25.0515 9.57338 24.604 8.73161 23.8493 8.18403L15.5374 1.88675C14.0812 0.790272 12.0112 0.790272 10.5551 1.88675L2.27964 8.19546C1.52204 8.74082 1.07378 9.58399 1.06445 10.4812V20.9386C1.06445 23.2172 3.02851 25.0644 5.45129 25.0644H7.88167C8.74743 25.0644 9.44926 24.4043 9.44926 23.5901" stroke="black" stroke-width="2.12881" stroke-linecap="round" stroke-linejoin="round"/>
</svg>
